<?xml version="1.0" encoding="utf-8"?>
<!-- Generator: Adobe Illustrator 26.3.1, SVG Export Plug-In . SVG Version: 6.00 Build 0)  -->
<svg version="1.1" id="Layer_1" xmlns="http://www.w3.org/2000/svg" xmlns:xlink="http://www.w3.org/1999/xlink" x="0px" y="0px"
	 viewBox="0 0 730 100" style="enable-background:new 0 0 730 100;" xml:space="preserve">
<style type="text/css">
	.st0{fill:#FFFFFF;}
	.st1{fill:#FFBB00;}
</style>
<g>
	<g>
		<path class="st0" d="M693.3,53.9c0.7,0.3,0.9,1.1,1.7,1.2c0.4-0.4,0-0.8,0-1.3c0.3,0.2,0.6,0.4,0.9,0.5c0.5-0.2,0.3-0.5,0.2-0.8
			c-0.1-0.3-0.3-0.5-0.5-0.8c0.6-0.1,0.8,0.7,1.5,0.5c0.2-0.3,0.1-0.6,0-0.9c-0.3-0.5-0.8-0.8-1.4-0.9c-0.5-0.1-1.1-0.1-1.6-0.5
			c0.1-0.3,0.2-0.6,0.2-0.8c0.5-1.4,0.9-2.7,1.4-4.1c0.2-0.7,0.5-1.5,0.7-2.2c0.2-0.7,0.1-1.2-0.3-1.9c-0.7-1.1-1.3-2.2-1.8-3.3
			c-0.3-0.7-0.1-1.4,0.3-2c0.1-0.1,0.3-0.2,0.4-0.3c0.5-0.1,1.1-0.3,1.6-0.4c0.7-0.1,1.5-0.2,2.2-0.4c1.2-0.2,2.4-0.1,3.6,0
			c1,0.1,2,0.2,3,0.2c1.6,0,3.2,0.1,4.8,0.4c2.3,0.4,4.6,0.7,6.9,1c1.7,0.3,3.4,0.6,5.2,0.9c1.3,0.2,2.7,0.6,4,0.5
			c0.4,0,0.7,0,0.9-0.5c0-0.4-0.4-0.4-0.6-0.4c-1-0.2-2.1-0.5-3.1-0.7c-2.6-0.6-5.1-1.2-7.7-1.9c-0.2,0-0.4-0.1-0.6-0.3
			c0.3,0,0.5,0.1,0.8,0.1c0.3,0,0.5,0.1,0.8,0.1c1.9,0.3,3.8,0.6,5.7,0.9c1.5,0.2,3,0.5,4.5,0.7c0.3,0,0.5,0.1,0.8,0.1
			c0.2,0,0.4-0.1,0.6-0.2c-0.3-0.7-0.7-1-1.2-1.2c-1.4-0.5-2.8-0.9-4.3-1.2c-3.3-0.7-6.5-1.8-9.7-2.9c-2.9-1.1-5.5-2.6-8-4.3
			c-1.8-1.3-3.7-2.6-5.7-3.5c-3.3-1.6-6.7-3.3-10-4.9c-0.7-0.4-1.4-0.8-2.1-1.3c-0.2-0.1-0.4-0.3-0.6-0.4c-0.1-0.1-0.4-0.1-0.5,0
			c-0.2,0.1-0.2,0.4-0.1,0.6c0.4,0.6,0.8,1.2,1.3,1.7c2.2,2.4,4.7,4.4,7.5,6.1c0.8,0.5,1.5,1,2.2,1.6c0.4,0.4,0.8,0.8,1,1.4
			c-0.3,0.7-0.9,1.3-1.5,1.8c-1,0.7-2.1,1.1-3.3,1.2c-1.6,0.1-3.2,0.1-4.8-0.1c-0.4-0.1-0.8,0-1.2,0c-0.8,0-1.6,0.1-2.4,0.1
			c-1.6,0-3.2,0.2-4.7,0.5c-1,0.2-2.1,0.3-3.1,0.5c-1,0.3-2,0.7-2.9,1.1c-0.3,0.1-0.6,0.4-0.9,0.7c-0.3,0.3-0.6,0.5-1.1,0.5
			c-0.3,0-0.6,0.1-1,0.1c-0.7,0.1-0.8,0.3-0.9,1c0,0.1,0,0.2,0,0.3c-0.1,0-0.2,0-0.2,0c-1.4-0.8-2.9-1-4.4-1.2
			c-0.9-0.1-1.8-0.2-2.6-0.6c-0.5-0.2-1-0.2-1.5,0.1c-0.3,0.1-0.6,0.3-0.9,0.4c-0.1,0-0.2,0.1-0.3,0.1c-0.9,0-1.5,0.5-2.4,0.7
			c-0.4,0.1-0.7,0.1-1-0.1c-0.3-0.2-0.6-0.1-0.9-0.3c-0.4-0.3-0.9-0.3-1.4-0.5c-0.3,0.3-0.3,0.6-0.1,0.8c0.2,0.2,0.4,0.5,0.6,0.6
			c0.7,0.4,1.4,0.8,2.3,0.9c0.3,0,0.6,0.1,1,0.2c0.6,0,1.2,0.1,1.7,0c0.9-0.2,1.9-0.4,2.8-0.6c0.5-0.1,1-0.1,1.5,0.1
			c1.4,0.7,2.8,1.3,4.2,2c0.1,0.1,0.3,0.2,0.5,0.3c-0.2,0.2-0.3,0.4-0.5,0.5c-0.7,0.5-1.3,1.1-2,1.6c-1.9,1.6-3.7,3.3-5.6,4.9
			c-1,0.8-2,1.6-3.1,2.3c-2.6,1.7-5.2,3.4-7.8,5c-4.1,2.6-8.2,5.1-12.3,7.6c-3.2,2-6.4,4-9.6,6c-0.2,0.1-0.3,0.2-0.5,0.3
			c0,0.2,0,0.4,0,0.6c0.1,0,0.2,0,0.2,0c0.1,0,0.3-0.1,0.4-0.2c4.4-2.5,8.7-5,13.1-7.6c5.3-3.2,10.6-6.5,16-9.6
			c3.1-1.8,6.2-3.8,9.3-5.7c0.7-0.4,1.4-0.8,2.1-1.2c0.3,0.1,0.5,0.2,0.8,0.3c0.2-0.2,0.3-0.4,0.5-0.6c0.2,0,0.5,0,0.8,0
			c0-0.4,0-0.8,0-1.1c0.6-0.1,0.8,0.6,1.4,0.5c0-0.3,0-0.7-0.1-1c0.3-0.3,2.6-1.2,3.3-1.3c0,0,0,0,0,0c0.2,1.7,1,3.3,1.5,5
			c0.9,3.2,1.3,6.5,1.4,9.9c0,2.6-0.6,5-1.7,7.3c-1.8,4.1-3.7,8.2-6,12c-1.5,2.5-3.2,4.7-5.1,6.9c-1.2,1.4-2.4,2.8-3.6,4.2
			c-0.3,0.3-0.6,0.7-1,1c-0.2,0.2-0.4,0.4-0.2,0.8c0.4,0.1,0.8,0,1.2-0.2c2.8-2.1,5.7-4.2,8.5-6.3c1.8-1.3,3.4-2.9,5-4.5
			c1.3-1.4,2.7-2.7,4.1-4c0.5-0.5,0.9-0.9,1.3-1.4c2.5-3,5-5.9,7.6-8.9c0.1-0.2,0.3-0.3,0.4-0.5c0.9-1.7,1.9-3.3,2.8-5
			c0.4-0.7,0.8-1.4,1.2-2C693,54.3,693.2,54.1,693.3,53.9z"/>
	</g>
</g>
<g>
	<g>
		<path class="st0" d="M3.7,71.2c0.7-11,1.1-22.4,1.3-34.1C5.2,25.4,4.7,14,3.7,2.9c6.8-0.8,12.5-0.4,17,1c4.5,1.4,8.9,4,13.2,7.8
			c2.7,4.5,3.7,9.1,3.2,13.5c-0.5,4.5-2.4,8.4-5.7,11.8c1,0.9,2,1.5,3,1.9c1,0.4,1.9,1,2.6,1.9c4.2,5.1,5.6,10,4.4,15
			c-1.3,4.9-3.9,8.8-8,11.6c-4,2.7-8.7,4.2-14.1,4.6C13.8,72.4,8.6,72.1,3.7,71.2z M10.8,37.4c-0.1,4.9-0.1,9.8-0.1,14.8
			c0,5-0.1,9.8-0.4,14.6c1.4,0,3.1,0,5.1-0.1c2-0.1,3.7-0.1,5.1-0.2c7.6-1.6,12.2-4.4,14-8.7c1.7-4.2,1.6-8.5-0.3-13
			c-1.8-2.1-3.9-3.7-6.5-4.8c-2.5-1.1-5.2-2-8-2.6c4-1.3,7.4-3.8,10-7.5c2.9-7.1,2.3-12.4-1.8-16.1C23.9,10.2,18,8.3,10.4,8
			c0.3,4.8,0.4,9.7,0.4,14.7C10.7,27.7,10.7,32.6,10.8,37.4z M12.8,36.4c0,0-0.1-0.1-0.3-0.1h-0.1c0-4.4-0.1-8.8-0.1-13.2
			c0-4.4,0-8.7,0-13.1c5.7-0.1,10.1,1.2,13,3.8c3,2.6,4.5,5.6,4.6,8.8c0.1,3.2-1.3,6.3-4.1,9.1C22.9,34.6,18.6,36.1,12.8,36.4z
			 M12.9,38.5c7.5,0.3,12.9,2,16.3,5c3.4,3,5,6.2,4.8,9.6c-0.3,3.4-2.2,6.3-6,8.9s-9,3.5-15.8,2.9c0-4.4,0-8.8,0.1-13.1
			c0-4.4,0.1-8.8,0.1-13.2C12.6,38.5,12.8,38.5,12.9,38.5z M16.4,14.8c0,2.7,0,5.3,0,7.9c0,2.6,0,5.2,0,7.8c5.5-1.3,8.1-3.9,8-7.7
			C24.2,18.9,21.6,16.3,16.4,14.8z M18.6,43.9c0,2.7,0,5.3,0,7.9c0,2.6,0,5.2,0,7.8c6.4-1.3,9.6-3.9,9.3-7.7
			C27.8,48.1,24.6,45.4,18.6,43.9z"/>
	</g>
	<g>
		<path class="st0" d="M42.1,4c2.3,0,4.6,0.1,6.9,0.2c2.3,0.1,4.6,0.1,6.9,0.1c1.6,7,4.1,13.6,7.3,19.6c3.2,6.1,6.7,12.3,10.3,18.8
			c0.1-4.9,0.1-9.9,0.1-14.9c0-5-0.2-10-0.4-15.1c0-0.9,0-2.4-0.1-4.5c0-2.1-0.1-3.5-0.1-4.3c2.3,0,4.6,0.1,6.9,0.2
			c2.3,0.1,4.6,0.1,6.9,0.1C87.1,5,87,9.1,86.7,16.4c-0.3,7.3-0.4,17.5-0.4,30.4c0.2,4,0.3,8.1,0.5,12.1c0.2,4,0.4,8,0.7,12
			c-5,0-9.9,0.1-14.9,0.2c-0.6-4-3.1-9.9-7.6-17.7c-4.5-7.8-7.6-13.5-9.5-17.3c0,1.6-0.1,3.4-0.1,5.1s0,3.6,0,5.5
			c0.1,4,0.3,8.1,0.5,12.1c0.2,4,0.4,8,0.7,12c-5,0-10,0.1-14.9,0.2c0.4-9.7,0.7-19.4,0.9-29.1c0.2-9.7,0.1-19.5-0.4-29.3
			c0-0.9,0-2.4-0.1-4.5C42.1,6.1,42.1,4.7,42.1,4z M50.2,11.1h-1.6c-0.1,9.2-0.1,18.3-0.2,27.5c0,9.1-0.1,18.3-0.1,27.4
			c0.3,0,0.5,0,0.9,0c0.3,0,0.6,0,1,0c0-8.6,0-17.2,0-25.8c0-8.6,0-17.2,0-25.8c4.8,8.8,9.6,17.3,14.4,25.5
			c4.8,8.2,9.7,16.7,14.5,25.5h2c0-9.7,0-19,0-28s0-18.3,0-28c-0.3,0-0.6,0.1-0.8,0.2c-0.3,0.1-0.5,0.1-0.7,0.1
			c-0.1,9.1-0.1,17.8-0.2,26.1c0,8.4-0.1,17-0.1,26.1c-4.8-8.8-9.7-17.3-14.6-25.4C59.8,28.4,55,19.9,50.2,11.1z"/>
	</g>
	<g>
		<path class="st0" d="M92,71.2c0.7-11,1.1-22.4,1.3-34.1C93.5,25.4,93,14,92,2.9c6.8-0.8,12.5-0.4,17,1c4.5,1.4,8.9,4,13.2,7.8
			c2.7,4.5,3.7,9.1,3.2,13.5c-0.5,4.5-2.4,8.4-5.7,11.8c1,0.9,2,1.5,3,1.9c1,0.4,1.9,1,2.6,1.9c4.2,5.1,5.6,10,4.4,15
			c-1.3,4.9-3.9,8.8-8,11.6c-4,2.7-8.7,4.2-14.1,4.6C102.1,72.4,96.9,72.1,92,71.2z M99.1,37.4C99,42.3,99,47.3,99,52.2
			c0,5-0.1,9.8-0.4,14.6c1.4,0,3.1,0,5.1-0.1c2-0.1,3.7-0.1,5.1-0.2c7.6-1.6,12.2-4.4,14-8.7c1.7-4.2,1.6-8.5-0.3-13
			c-1.8-2.1-3.9-3.7-6.5-4.8c-2.5-1.1-5.2-2-8-2.6c4-1.3,7.4-3.8,10-7.5c2.9-7.1,2.3-12.4-1.8-16.1c-4.1-3.7-10-5.6-17.6-5.9
			c0.3,4.8,0.4,9.7,0.4,14.7C99,27.7,99,32.6,99.1,37.4z M101.1,36.4c0,0-0.1-0.1-0.3-0.1h-0.1c0-4.4-0.1-8.8-0.1-13.2
			c0-4.4,0-8.7,0-13.1c5.7-0.1,10.1,1.2,13,3.8c3,2.6,4.5,5.6,4.6,8.8c0.1,3.2-1.3,6.3-4.1,9.1C111.2,34.6,106.9,36.1,101.1,36.4z
			 M101.2,38.5c7.5,0.3,12.9,2,16.3,5c3.4,3,5,6.2,4.8,9.6c-0.3,3.4-2.2,6.3-6,8.9s-9,3.5-15.8,2.9c0-4.4,0-8.8,0.1-13.1
			c0-4.4,0.1-8.8,0.1-13.2C100.9,38.5,101.1,38.5,101.2,38.5z M104.7,14.8c0,2.7,0,5.3,0,7.9c0,2.6,0,5.2,0,7.8
			c5.5-1.3,8.1-3.9,8-7.7C112.5,18.9,109.9,16.3,104.7,14.8z M106.9,43.9c0,2.7,0,5.3,0,7.9c0,2.6,0,5.2,0,7.8
			c6.4-1.3,9.6-3.9,9.3-7.7C116.1,48.1,112.9,45.4,106.9,43.9z"/>
	</g>
	<g>
		<path class="st0" d="M171.9,17.7c-0.1,3.8-0.2,7.8-0.3,12c-0.1,4.2-0.1,9.6-0.1,16.3c0.2,4.2,0.3,8.3,0.5,12.5
			c0.2,4.2,0.4,8.4,0.7,12.5c-5.1,0-10.3,0.1-15.5,0.2c0.4-9.5,0.7-18.4,0.9-26.8c0.2-8.4,0.2-17.4-0.2-26.9
			c-4.3,0.1-8.1,0.2-11.4,0.4c-0.8,0-2.1,0.1-4.2,0.1s-3.3,0.1-3.9,0.1c0-2.4,0-4.7,0.1-7.2c0-2.4,0.1-4.8,0.1-7.2
			c0.6-0.2,3.9-0.1,9.8,0.2c5.9,0.3,13.7,0.4,23.4,0.4c2.9-0.2,6.2-0.4,9.8-0.6c3.6-0.2,6.9-0.4,9.9-0.7c0,2.6,0,5.2,0,7.8
			c0,2.6,0.1,5.2,0.1,7.7c-3-0.2-6.3-0.3-9.9-0.5C178.2,17.9,174.9,17.8,171.9,17.7z M164.1,65.8c0.3,0,0.5,0,0.9,0s0.7,0,1,0
			c0-9.6,0-18.7,0-27.2c0-8.5,0-17.6,0-27.2c3.3,0,6.7,0.1,10,0.1c3.3,0,6.7,0,10.1,0c0-0.3,0-0.5,0-0.9c0-0.3,0-0.7,0-1
			c-7,0-14.1,0-21.1,0s-14,0-20.9,0c0.1,0.8,0.1,1.3,0.2,1.6c3.3,0,6.7,0.1,10,0.1c3.4,0,6.7,0,10,0c0,9.6-0.1,18.7-0.1,27.2
			C164.2,47.1,164.1,56.2,164.1,65.8z"/>
	</g>
	<g>
		<path class="st0" d="M190.6,11.7c1.9,0,3.8,0.1,5.7,0.1c1.9,0,3.8,0.1,5.8,0.1c0.1,0.5,0.1,2.6,0,6.2c-0.1,3.6-0.3,8.6-0.3,14.9
			c2.8,0.1,6.4,0.2,10.6,0.2c1.1-0.1,1.9-0.1,2.5-0.2c0-2.4-0.1-4.7-0.1-7.1c0-2.4-0.1-4.8-0.3-7.2c0-0.8-0.1-2-0.1-3.6
			c0-1.6,0-2.8,0-3.4c1.9,0,3.8,0.1,5.7,0.1c1.9,0,3.8,0.1,5.8,0.1c0.1,0.6,0.1,3.9-0.1,9.8s-0.3,14-0.3,24.3
			c0.3,6.5,0.6,12.9,0.9,19.3c-2.1,0-4.1,0-6.2,0.1c-2.1,0.1-4.1,0.1-6.2,0.1c0.1-3.5,0.3-7.1,0.4-10.5c0.1-3.5,0.3-7,0.3-10.5
			c-5-0.3-9.4-0.3-13.1-0.2c0,0.3,0,0.7,0,0.9c0,0.3,0,0.6,0,0.9c0.3,6.5,0.6,12.9,0.9,19.3c-2.1,0-4.1,0-6.2,0.1
			c-2.1,0.1-4.1,0.1-6.2,0.1c0.3-7.8,0.6-15.6,0.8-23.3c0.2-7.7,0.1-15.5-0.3-23.4c0-0.8-0.1-2-0.1-3.6
			C190.6,13.5,190.6,12.4,190.6,11.7z M195.7,61.2c0.3,0,0.5,0,0.8,0c0.3,0,0.5,0,0.8,0c0-3.7,0-7.3,0-11.1c0-3.7,0-7.4,0-11.1
			c3.7,0,7.4,0.1,11.1,0.2c3.7,0.1,7.4,0.1,11.2,0.1c0,3.7,0,7.3-0.1,11c0,3.7-0.1,7.3-0.1,10.9c0.3,0,0.5,0,0.8,0
			c0.3,0,0.5,0,0.8,0c0-7.5,0-15,0-22.5s0-15,0-22.6c-0.3,0-0.5,0.1-0.7,0.2c-0.2,0.1-0.4,0.1-0.6,0.1c0,3.6,0,7.1-0.1,10.7
			c0,3.6-0.1,7.1-0.1,10.6c-3.7,0-7.4,0-11.1,0s-7.4,0-11.1,0c0-3.6,0-7.2,0-10.8s0-7.2,0-10.8c-0.3,0-0.5,0.1-0.7,0.2
			c-0.2,0.1-0.4,0.1-0.6,0.1c0,7.5-0.1,15-0.1,22.5C195.8,46.3,195.8,53.7,195.7,61.2z"/>
	</g>
	<g>
		<path class="st0" d="M256.9,54.9c0,1.8-0.1,3.6-0.1,5.5c0,1.8,0,3.7,0,5.5c-5.4,0.2-10.1,0.1-14.1-0.2c-4-0.3-8.7-0.4-14.1-0.3
			c0.3-7.7,0.5-15.4,0.7-23.1c0.2-7.7,0.1-15.3-0.3-23.1c0-0.8,0-1.9-0.1-3.6s-0.1-2.7-0.1-3.4c3.8,0.1,7.6,0.2,11.5,0.2
			c3.9,0.1,8-0.1,12.4-0.5c0.4,0,1.1,0,2-0.1s1.6-0.1,2-0.1c0,1.8-0.1,3.6-0.1,5.5c0,1.8,0,3.7,0,5.5c-0.4,0.1-1.6,0.1-3.5-0.1
			c-2-0.2-5.9-0.3-11.9-0.3c-0.8,0.1-1.5,0.1-1.9,0.1c-0.1,3.2-0.1,6.9-0.2,11.1c1.8,0.1,2.9,0.1,3.4,0.1c0.4,0,1.6-0.1,3.5-0.3
			c0.9-0.1,2-0.1,3.1-0.1c0,1.8,0,3.6,0,5.4c0,1.8,0,3.6,0,5.4c-0.3,0.2-1,0.1-2-0.1c-1-0.2-3.7-0.3-8-0.4c0,0.4,0,0.8,0,1.2
			c0,0.4,0,0.8,0,1.2c0.1,1.5,0.2,3,0.2,4.5c0.1,1.5,0.1,3,0.2,4.5c2.9,0.1,5.1,0.2,6.6,0.2c1.5,0,3.7-0.1,6.7-0.3
			c0.4,0,1.1,0,2-0.1C255.9,54.9,256.6,54.9,256.9,54.9z M233.8,61.2h17.6l-0.1-1.2l-16-0.2V39.6h9.4l-0.1-1.3l-9.3-0.2V18.3h16.2
			l-0.1-1.3L234,16.9L233.8,61.2z"/>
	</g>
	<g>
		<path class="st0" d="M268.4,5.2c2.2,0.1,4.4,0.1,6.7,0.2c2.3,0,4.5,0.1,6.8,0.1c0.1,0.8,0.1,4.6-0.2,11.6
			c-0.3,6.9-0.4,16.5-0.4,28.7c0.1,1.9,0.2,3.8,0.3,5.7c0.1,1.9,0.2,3.8,0.3,5.7c3.2,0.1,6.9,0.2,11.4,0.2c2-0.1,4.1-0.3,6.1-0.5
			c2-0.2,4.1-0.4,6.2-0.6c0,2.4,0,4.7,0,7c0,2.3,0.1,4.6,0.1,6.9c-6.3-0.5-12.6-0.7-18.9-0.6s-12.6,0.2-18.9,0.3
			c0.4-9.2,0.7-18.6,0.9-28.2c0.3-9.6,0.2-19-0.3-28.2c0-0.9-0.1-2.3-0.1-4.3S268.4,5.9,268.4,5.2z M274.4,62.3v1.5l26.1,0.3
			c0-0.3,0-0.5,0-0.8c0-0.3,0-0.6,0-0.9c-4.5,0-8.5,0-12.2,0s-7.7,0-12.2,0c0-8.6,0-17.3,0-25.9c0-8.7,0-17.3,0-26
			c-0.3,0-0.5,0.1-0.8,0.2c-0.3,0.1-0.5,0.1-0.8,0.1c0,8.6-0.1,17.3-0.1,25.9C274.5,45.1,274.5,53.7,274.4,62.3z"/>
	</g>
	<g>
		<path class="st0" d="M328.2,11.9c2.9-0.1,5.7,0.3,8.3,1.3c4.3,1.7,7.6,4.9,9.9,9.4c2.2,4.5,3.4,9.4,3.6,14.6
			c0.2,5.2-0.7,10.2-2.6,15.1c-1.9,4.8-4.8,8.4-8.7,10.6c-3.1,1.8-6.6,2.6-10.5,2.4c-3,0.2-5.8-0.3-8.4-1.4
			c-4.6-1.8-8-5.2-10.2-10.3c-2.2-5.1-3.3-10.4-3.2-16c0.1-5.6,1.4-10.8,3.9-15.6c2.5-4.8,6.2-7.9,11.1-9.3
			C323.5,12.1,325.8,11.8,328.2,11.9z M322,59.1c4,1.4,8,1.4,11.8,0c3.4-1.5,6-4.2,7.7-8.1S344,43,344,38.6c0-4.4-0.9-8.5-2.6-12.4
			s-4.3-6.6-7.7-8.1c-1.9-0.5-3.8-0.9-5.8-1.1s-4,0.1-6,1.1c-3.3,1.7-5.8,4.5-7.5,8.4c-1.7,3.9-2.5,8.1-2.6,12.4s0.8,8.5,2.4,12.3
			C316,55,318.6,57.6,322,59.1z M327.7,18.4c4.7,0.2,8.2,2.3,10.6,6.5c2.4,4.1,3.6,8.7,3.7,13.7c0.1,5-1.1,9.5-3.4,13.7
			s-5.9,6.3-10.7,6.4c-4.8-0.2-8.4-2.3-10.7-6.5c-2.3-4.1-3.5-8.7-3.5-13.6c0-4.9,1.2-9.5,3.6-13.6
			C319.6,20.8,323.1,18.6,327.7,18.4z M328.2,52.1c2.4-0.2,4.6-1.5,6.5-3.9c1.9-2.4,2.9-5.9,2.9-10.5c0-4.2-1-7.4-2.9-9.6
			c-1.9-2.2-4.1-3.4-6.5-3.6c-2.4,0.2-4.7,1.4-6.9,3.6c-2.2,2.2-3.3,5.4-3.3,9.6c0,4.6,1.1,8.1,3.3,10.5
			C323.5,50.6,325.8,51.9,328.2,52.1z"/>
	</g>
	<g>
		<path class="st0" d="M357.8,67.4c-1.7-1.2-3.3-2.4-5-3.6c-1.6-1.2-3.3-2.4-4.9-3.6c0.1-0.3,0.2-0.6,0.3-0.9c3.4-2.5,5.8-4.5,7.4-6
			s2.4-4.5,2.4-8.9c-1.3-2.3-2.6-4.6-3.9-6.9c-1.2-2.3-2.5-4.7-3.8-7c-0.3-4.8,0.6-8.5,2.5-11.1c1.9-2.7,4.4-5.7,7.6-9.3
			c1.6,0,3.8,1,6.5,3.1c2.7,2.1,4.3,3.9,4.8,5.5c-2.5,1.3-4.5,2.8-6.1,4.6c-1.6,1.8-2.3,4.1-2.3,7.1c0.3,0.6,0.5,1.2,0.8,1.7
			s0.5,1.2,0.8,1.8c2.9,4.5,4.7,7.9,5.5,10.4c0.8,2.5,0,6.3-2.4,11.3c-1.3,1.8-2.8,4-4.5,6.6C361.7,64.8,359.8,66.5,357.8,67.4z
			 M356.7,60.5c0.4,0,0.8-0.1,1.3-0.2c1.9-3,3.6-5.8,5-8.3c1.4-2.5,1.8-5.7,1-9.5c-3-5.2-5.1-9.5-6.1-12.9c-1-3.4,0.6-7.5,4.9-12.4
			c-0.2-0.9-0.5-1.5-0.8-1.6c-2.4,2-3.9,4.2-4.6,6.6c-0.7,2.4-1.1,5-1.1,7.8c0.9,2.4,2.1,4.8,3.4,7.2c1.3,2.4,2.4,4.5,3.1,6.2
			c0,6.5-2.1,11.8-6.4,15.9C356.5,59.5,356.6,59.9,356.7,60.5z"/>
	</g>
	<g>
		<path class="st0" d="M397.2,22.8c-0.1,3-0.2,6.2-0.3,9.6c-0.1,3.3-0.1,7.7-0.1,13c0.1,3.3,0.3,6.7,0.4,10
			c0.2,3.3,0.4,6.7,0.6,10.1c-2.1,0-4.1,0-6.2,0.1c-2.1,0-4.1,0.1-6.1,0.1c0.3-7.6,0.5-14.7,0.7-21.4c0.2-6.7,0.1-13.9-0.1-21.5
			c-3,0.1-6.1,0.2-9.2,0.4c-0.5,0-1.6,0-3.3,0c-1.6,0-2.7,0-3.1,0c0-1.9,0-3.7,0.1-5.7c0-1.9,0.1-3.8,0.1-5.8
			c0.5-0.1,3.1-0.1,7.8,0.1c4.7,0.2,10.9,0.3,18.6,0.3c2.4-0.1,5-0.3,7.9-0.4s5.5-0.4,7.9-0.6c0,2.1,0,4.2,0,6.3
			c0,2.1,0.1,4.1,0.1,6.1c-2.4-0.1-5-0.3-7.9-0.4C402.2,23,399.6,22.9,397.2,22.8z M391,61.2c0.2,0,0.4,0,0.7,0s0.5,0,0.8,0
			c0-7.6,0-14.8,0-21.6c0-6.8,0-14,0-21.7c2.7,0,5.3,0.1,8,0.1c2.7,0,5.3,0,8,0c0-0.2,0-0.5,0-0.7c0-0.3,0-0.5,0-0.8
			c-5.6,0-11.2,0-16.8,0c-5.6,0-11.2,0-16.7,0c0.1,0.6,0.1,1,0.2,1.3c2.7,0,5.3,0.1,8,0.1c2.7,0,5.4,0,8.1,0
			c0,7.7-0.1,14.9-0.1,21.7C391,46.4,391,53.6,391,61.2z"/>
	</g>
	<g>
		<path class="st0" d="M480.7,4.3c-0.2,0.8-0.6,2.3-1.1,4.4s-0.9,3.7-1.1,4.7c-2.5,8.7-5,18.7-7.4,30.2c-2.4,11.4-4.2,20.2-5.3,26.4
			c-2.3-0.2-4.2-0.1-5.8,0.1s-3.5,0.6-5.8,1c-0.6-3.2-1.2-6-1.8-8.7c-0.6-2.6-1.3-6.1-2.2-10.4c-0.2-0.7-0.4-1.4-0.6-2.1
			c-0.2-0.7-0.4-1.4-0.6-2.1c-0.2,0.7-0.4,1.4-0.6,2.1c-0.2,0.7-0.4,1.4-0.6,2.1c-0.9,4.3-1.7,7.7-2.2,10.4
			c-0.5,2.6-1.1,5.5-1.8,8.7c-2.3-0.1-4.2-0.4-5.8-0.7c-1.6-0.4-3.5-0.5-5.8-0.4c-1.2-6.1-3-14.9-5.4-26.4
			c-2.4-11.4-4.8-21.5-7.2-30.2c-0.3-1-0.7-2.5-1.2-4.7c-0.5-2.1-0.9-3.6-1.1-4.4c2.4-0.5,4.8-0.9,7.3-1.5c2.5-0.5,5-1,7.5-1.5
			c0.3,0.6,1,3.6,2,8.8c1,5.3,2.6,12.5,4.6,21.7c0.9-3.4,1.6-6.3,2.1-8.8c0.5-2.5,1.2-5.2,2-8c2.7,0.1,4.7,0.2,6.1,0.2
			c1.4,0,3.4-0.1,6.2-0.2c0.8,2.8,1.4,5.4,2,8c0.5,2.5,1.3,5.5,2.1,8.8c2-9.2,3.5-16.5,4.6-21.7c1-5.3,1.7-8.2,2.1-8.8
			c2.5,0.5,5,1,7.5,1.5C475.7,3.4,478.2,3.9,480.7,4.3z M460.5,60.1c1.8-7.7,3.7-16.1,5.8-25.4c2.1-9.3,4.1-17.9,5.9-25.9
			c-0.3-0.1-0.8-0.4-1.6-0.7c-2,8.7-3.9,16.8-5.7,24.3c-1.8,7.5-3.7,15.4-5.6,23.7c-1.6-5.7-3.2-10.9-4.6-15.7
			c-1.4-4.8-3-10.3-4.8-16.6c-0.2,0-0.4,0.1-0.6,0.1c-0.2,0-0.4,0-0.5,0c-0.2,0-0.4,0-0.6,0c-0.2,0-0.4-0.1-0.5-0.1
			c-1.8,6.3-3.4,11.9-4.8,16.6s-2.9,10-4.5,15.7c-2-8.3-3.9-16.2-5.6-23.7c-1.8-7.5-3.7-15.6-5.7-24.3c-0.8,0.3-1.3,0.6-1.6,0.7
			c1.8,8,3.7,16.6,5.9,25.9c2.1,9.3,4.1,17.8,5.9,25.4h2.1c1.8-6.3,3.3-11.9,4.7-16.9c1.4-4.9,3-10.6,4.7-16.9
			c1.8,6.3,3.3,11.9,4.7,16.9c1.4,4.9,3,10.6,4.7,16.9H460.5z"/>
	</g>
	<g>
		<path class="st0" d="M499.7,11.9c2.9-0.1,5.7,0.3,8.3,1.3c4.3,1.7,7.6,4.9,9.9,9.4c2.2,4.5,3.4,9.4,3.6,14.6
			c0.2,5.2-0.7,10.2-2.6,15.1c-1.9,4.8-4.8,8.4-8.7,10.6c-3.1,1.8-6.6,2.6-10.5,2.4c-3,0.2-5.8-0.3-8.4-1.4
			c-4.6-1.8-8-5.2-10.2-10.3c-2.2-5.1-3.3-10.4-3.2-16c0.1-5.6,1.4-10.8,3.9-15.6c2.5-4.8,6.2-7.9,11.1-9.3
			C494.9,12.1,497.2,11.8,499.7,11.9z M493.4,59.1c4,1.4,8,1.4,11.8,0c3.4-1.5,6-4.2,7.7-8.1s2.6-8.1,2.6-12.4
			c0-4.4-0.9-8.5-2.6-12.4s-4.3-6.6-7.7-8.1c-1.9-0.5-3.8-0.9-5.8-1.1s-4,0.1-6,1.1c-3.3,1.7-5.8,4.5-7.5,8.4
			c-1.7,3.9-2.5,8.1-2.6,12.4s0.8,8.5,2.4,12.3C487.5,55,490,57.6,493.4,59.1z M499.2,18.4c4.7,0.2,8.2,2.3,10.6,6.5
			c2.4,4.1,3.6,8.7,3.7,13.7c0.1,5-1.1,9.5-3.4,13.7s-5.9,6.3-10.7,6.4c-4.8-0.2-8.4-2.3-10.7-6.5c-2.3-4.1-3.5-8.7-3.5-13.6
			c0-4.9,1.2-9.5,3.6-13.6C491,20.8,494.5,18.6,499.2,18.4z M499.6,52.1c2.4-0.2,4.6-1.5,6.5-3.9c1.9-2.4,2.9-5.9,2.9-10.5
			c0-4.2-1-7.4-2.9-9.6c-1.9-2.2-4.1-3.4-6.5-3.6c-2.4,0.2-4.7,1.4-6.9,3.6c-2.2,2.2-3.3,5.4-3.3,9.6c0,4.6,1.1,8.1,3.3,10.5
			C494.9,50.6,497.2,51.9,499.6,52.1z"/>
	</g>
	<g>
		<path class="st0" d="M540.8,66.5c-1.2-2.5-2.4-5-3.6-7.4c-1.2-2.5-2.3-4.9-3.5-7.4c-0.3,0-0.5,0-0.7,0s-0.4,0-0.5,0
			c-1.8,1.8-2.1,4-1,6.6c1.1,2.6,1.3,4.9,0.4,6.9c-2.7,0.1-4.8,0.2-6.3,0.3c-1.5,0.1-3.1,0.2-4.8,0.3V43.5c0-5.2,0.1-10.5,0.1-15.7
			c0-5.2,0.1-10.5,0.1-15.8c2.6,0,5.1,0,7.7,0c2.6,0,5.2,0,7.9,0c6.7,3.2,10.7,7.8,12,14c1.3,6.2-0.7,11.7-6,16.6
			c0.6,3.6,1.6,7.2,2.8,10.7c1.3,3.5,2.5,6.9,3.7,10.4c-1.4,0.5-2.9,1-4.3,1.5C543.6,65.6,542.2,66,540.8,66.5z M543,61.7
			c0.1,0,0.2,0,0.3,0s0.2,0,0.4,0c-0.9-2.5-2.1-5.7-3.7-9.5c-1.6-3.8-2.2-7-1.8-9.7c6.5-6.6,7.6-13.9,3.1-21.9
			c-2.8-2.6-5.2-4.2-7.2-4.8c-2-0.6-4.9-0.8-8.7-0.7c0,7.7,0,15.4,0,23.1c0,7.7,0,15.4,0,23.1c0.2,0,0.4,0,0.7,0s0.5,0,0.8,0
			c-0.1-6.6-0.2-10.5-0.2-11.7s0.1-2.1,0.3-2.6c1.5-0.4,3.1-0.9,4.8-1.6c1.7-0.7,3.3-1,4.8-1c1.1,2.9,2.1,5.8,3.2,8.6
			C540.8,55.9,541.9,58.8,543,61.7z M526.9,45.6c0-4.9,0-9.9,0-14.8c0-5,0-9.9,0-14.8c7.9-0.7,13.2,3.1,15.9,11.4
			c0,5.1-1.3,9.4-3.9,12.8C536.3,43.4,532.3,45.3,526.9,45.6z M531.2,39.3c0.4-0.1,0.8-0.1,1-0.2c3.2-3,5-6.2,5.2-9.5
			c0.3-3.3-1.9-6-6.6-8.3c0,3,0,6,0.1,9C531.1,33.4,531.2,36.3,531.2,39.3z"/>
	</g>
	<g>
		<path class="st0" d="M548.5,12.9c1.7,0,3.5,0.1,5.3,0.1c1.8,0,3.6,0.1,5.4,0.1c0.1,0.6,0.1,3.7-0.1,9.2
			c-0.2,5.5-0.3,13.2-0.3,22.9c0,1.5,0.1,3,0.2,4.6c0.1,1.5,0.2,3.1,0.3,4.6c3.3,0.1,6.3,0.1,9.1,0.1c1.6-0.1,3.2-0.3,4.8-0.4
			c1.6-0.1,3.3-0.3,4.9-0.5c0,1.9,0,3.8,0,5.7c0,1.9,0.1,3.7,0.1,5.6c-5.1-0.4-10.1-0.5-15.1-0.5c-5,0-10,0.1-14.9,0.2
			c0.3-7.3,0.5-14.8,0.7-22.5s0.1-15.1-0.2-22.5c0-0.7-0.1-1.9-0.1-3.4C548.5,14.5,548.5,13.5,548.5,12.9z M553.2,58.4v1.2l20.8,0.2
			c0-0.2,0-0.4,0-0.7s0-0.5,0-0.7c-3.5,0-6.8,0-9.7,0c-2.9,0-6.2,0-9.7,0c0-6.9,0-13.8,0-20.7s0-13.8,0-20.7c-0.2,0-0.4,0.1-0.6,0.1
			c-0.2,0-0.4,0.1-0.6,0.1c0,6.9-0.1,13.8-0.1,20.7C553.2,44.7,553.2,51.5,553.2,58.4z"/>
	</g>
	<g>
		<path class="st0" d="M608.2,53.7c-4.5,5.6-8.7,9.1-12.8,10.3c-4.1,1.2-9.4,1.5-15.9,0.9c0.6-17.6,0.6-35.2,0-52.8
			c6.5-0.6,11.8-0.3,15.9,0.9c4.1,1.2,8.4,4.7,12.8,10.3C612.4,33.4,612.4,43.6,608.2,53.7z M584.5,61.3c1.3,0,2.5-0.1,3.8-0.2
			c1.3-0.1,2.5-0.2,3.9-0.3c4.6-1.6,8-4.5,10.4-8.7c2.3-4.2,3.5-8.7,3.5-13.5s-1.2-9.2-3.5-13.5c-2.3-4.2-5.8-7.2-10.4-8.8
			c-1.3-0.1-2.6-0.2-3.9-0.3c-1.3-0.1-2.5-0.2-3.8-0.3C585,31,585,46.1,584.5,61.3z M586.1,16.7c6.1-0.1,10.7,2.1,13.7,6.7
			c3.1,4.6,4.6,9.6,4.6,15.2s-1.5,10.6-4.6,15.2c-3.1,4.6-7.6,6.8-13.7,6.6c0-7.2,0-14.5,0-21.8S586.1,24,586.1,16.7z M591.8,23.4
			c0,5.1,0,10.1,0,15.1c0,5,0,10,0,15.1c5.6-2.5,8.3-7.6,8.3-15.1C600.1,31,597.3,25.9,591.8,23.4z"/>
	</g>
</g>
<g>
	<path class="st1" d="M167.4,95.1h-8.4V80.6h8.4v2.5h-5.3v3.2h4.9v2.5h-4.9v3.7h5.3V95.1z"/>
	<path class="st1" d="M179.3,95.1l-1.1-3.5H173l-1.1,3.5h-3.3l5.1-14.6h3.8l5.1,14.6H179.3z M177.5,89.1c-1-3.1-1.5-4.9-1.6-5.3
		c-0.1-0.4-0.2-0.7-0.3-1c-0.2,0.8-0.8,2.9-1.9,6.3H177.5z"/>
	<path class="st1" d="M187.5,89.5v5.6h-3.1V80.6h4.2c2,0,3.4,0.4,4.4,1.1c0.9,0.7,1.4,1.8,1.4,3.3c0,0.9-0.2,1.6-0.7,2.3
		c-0.5,0.7-1.1,1.2-2,1.6c2.2,3.3,3.6,5.4,4.3,6.3h-3.4l-3.5-5.6H187.5z M187.5,87h1c1,0,1.7-0.2,2.2-0.5c0.5-0.3,0.7-0.8,0.7-1.5
		c0-0.7-0.2-1.2-0.7-1.5c-0.5-0.3-1.2-0.4-2.2-0.4h-0.9V87z"/>
	<path class="st1" d="M210.8,95.1h-3.9l-6.3-11h-0.1c0.1,1.9,0.2,3.3,0.2,4.1v6.8h-2.8V80.6h3.9l6.3,10.9h0.1
		c-0.1-1.9-0.1-3.2-0.1-4v-6.9h2.8V95.1z"/>
	<path class="st1" d="M226.3,95.1h-3.1v-8.4l0-1.4l0-1.5c-0.5,0.5-0.9,0.8-1.1,1l-1.7,1.3l-1.5-1.8l4.7-3.7h2.5V95.1z"/>
	<path class="st1" d="M240.4,87.8c0,2.5-0.4,4.4-1.2,5.6c-0.8,1.2-2.1,1.8-3.8,1.8c-1.7,0-2.9-0.6-3.8-1.9s-1.3-3.1-1.3-5.6
		c0-2.6,0.4-4.4,1.2-5.7c0.8-1.2,2.1-1.8,3.8-1.8c1.7,0,2.9,0.6,3.8,1.9C239.9,83.5,240.4,85.4,240.4,87.8z M233.3,87.8
		c0,1.8,0.2,3.1,0.5,3.8c0.3,0.8,0.8,1.2,1.6,1.2c0.7,0,1.2-0.4,1.5-1.2c0.3-0.8,0.5-2.1,0.5-3.8c0-1.8-0.2-3.1-0.5-3.8
		c-0.3-0.8-0.8-1.2-1.5-1.2c-0.7,0-1.2,0.4-1.5,1.2C233.4,84.8,233.3,86.1,233.3,87.8z"/>
	<path class="st1" d="M248.6,84.9c0,1.5-0.3,2.7-0.9,3.4c-0.6,0.8-1.5,1.1-2.6,1.1c-1.1,0-1.9-0.4-2.5-1.2c-0.6-0.8-0.9-1.9-0.9-3.4
		c0-3,1.1-4.5,3.4-4.5c1.1,0,2,0.4,2.6,1.2S248.6,83.5,248.6,84.9z M244.2,84.9c0,0.8,0.1,1.5,0.2,1.9c0.1,0.4,0.4,0.6,0.7,0.6
		c0.6,0,1-0.8,1-2.5c0-1.7-0.3-2.5-1-2.5c-0.3,0-0.6,0.2-0.7,0.6C244.3,83.5,244.2,84.1,244.2,84.9z M255.4,80.6l-8.1,14.5H245
		l8.1-14.5H255.4z M258.8,90.7c0,1.5-0.3,2.7-0.9,3.4c-0.6,0.8-1.5,1.1-2.6,1.1c-1.1,0-1.9-0.4-2.5-1.2s-0.9-1.9-0.9-3.4
		c0-3,1.1-4.5,3.4-4.5c1.1,0,2,0.4,2.6,1.2C258.5,88.1,258.8,89.3,258.8,90.7z M254.4,90.7c0,0.8,0.1,1.5,0.2,1.9s0.4,0.6,0.7,0.6
		c0.6,0,1-0.8,1-2.5c0-1.7-0.3-2.5-1-2.5c-0.3,0-0.6,0.2-0.7,0.6C254.5,89.3,254.4,89.9,254.4,90.7z"/>
	<path class="st1" d="M278.6,87.7c0,2.4-0.7,4.2-2,5.5c-1.4,1.3-3.3,1.9-5.9,1.9h-4.1V80.6h4.6c2.4,0,4.2,0.6,5.5,1.9
		C277.9,83.7,278.6,85.5,278.6,87.7z M275.4,87.8c0-3.1-1.4-4.7-4.1-4.7h-1.6v9.5h1.3C273.9,92.6,275.4,91,275.4,87.8z"/>
	<path class="st1" d="M290.4,95.1l-1.1-3.5h-5.3l-1.1,3.5h-3.3l5.1-14.6h3.8l5.1,14.6H290.4z M288.7,89.1c-1-3.1-1.5-4.9-1.6-5.3
		c-0.1-0.4-0.2-0.7-0.3-1c-0.2,0.8-0.8,2.9-1.9,6.3H288.7z"/>
	<path class="st1" d="M295.6,95.1V80.6h3.1v14.5H295.6z"/>
	<path class="st1" d="M302.3,95.1V80.6h3.1v12h5.9v2.5H302.3z"/>
	<path class="st1" d="M318.3,86.6l3-6h3.3l-4.8,8.9v5.6h-3.1v-5.5l-4.8-9h3.3L318.3,86.6z"/>
	<path class="st1" d="M344.9,87.8c0,2.4-0.6,4.2-1.8,5.5s-2.9,1.9-5.1,1.9s-3.9-0.6-5.1-1.9s-1.8-3.1-1.8-5.6c0-2.4,0.6-4.3,1.8-5.5
		s2.9-1.9,5.1-1.9c2.2,0,3.9,0.6,5.1,1.9C344.4,83.6,344.9,85.4,344.9,87.8z M334.4,87.8c0,1.6,0.3,2.8,0.9,3.7
		c0.6,0.8,1.5,1.2,2.8,1.2c2.5,0,3.7-1.6,3.7-4.9c0-3.3-1.2-4.9-3.7-4.9c-1.2,0-2.1,0.4-2.8,1.2C334.7,85,334.4,86.2,334.4,87.8z"/>
	<path class="st1" d="M360.8,95.1h-3.9l-6.3-11h-0.1c0.1,1.9,0.2,3.3,0.2,4.1v6.8H348V80.6h3.9l6.3,10.9h0.1c-0.1-1.9-0.1-3.2-0.1-4
		v-6.9h2.8V95.1z"/>
	<path class="st1" d="M374.3,86.6l3-6h3.3l-4.8,8.9v5.6h-3.1v-5.5l-4.8-9h3.3L374.3,86.6z"/>
	<path class="st1" d="M395.6,87.8c0,2.4-0.6,4.2-1.8,5.5s-2.9,1.9-5.1,1.9s-3.9-0.6-5.1-1.9s-1.8-3.1-1.8-5.6c0-2.4,0.6-4.3,1.8-5.5
		s2.9-1.9,5.1-1.9c2.2,0,3.9,0.6,5.1,1.9C395,83.6,395.6,85.4,395.6,87.8z M385,87.8c0,1.6,0.3,2.8,0.9,3.7c0.6,0.8,1.5,1.2,2.8,1.2
		c2.5,0,3.7-1.6,3.7-4.9c0-3.3-1.2-4.9-3.7-4.9c-1.2,0-2.1,0.4-2.8,1.2C385.3,85,385,86.2,385,87.8z"/>
	<path class="st1" d="M410.4,80.6V90c0,1.1-0.2,2-0.7,2.8c-0.5,0.8-1.2,1.4-2.1,1.9s-2,0.6-3.2,0.6c-1.9,0-3.3-0.5-4.3-1.4
		c-1-1-1.5-2.3-1.5-3.9v-9.4h3.1v8.9c0,1.1,0.2,1.9,0.7,2.5c0.4,0.5,1.2,0.8,2.2,0.8c1,0,1.7-0.3,2.2-0.8c0.5-0.5,0.7-1.4,0.7-2.5
		v-8.9H410.4z"/>
	<path class="st1" d="M417.1,89.5v5.6H414V80.6h4.2c2,0,3.4,0.4,4.4,1.1c0.9,0.7,1.4,1.8,1.4,3.3c0,0.9-0.2,1.6-0.7,2.3
		c-0.5,0.7-1.1,1.2-2,1.6c2.2,3.3,3.6,5.4,4.3,6.3h-3.4l-3.5-5.6H417.1z M417.1,87h1c1,0,1.7-0.2,2.2-0.5c0.5-0.3,0.7-0.8,0.7-1.5
		c0-0.7-0.2-1.2-0.7-1.5c-0.5-0.3-1.2-0.4-2.2-0.4h-0.9V87z"/>
	<path class="st1" d="M432.7,80.6h4.5c2.1,0,3.6,0.3,4.5,0.9c0.9,0.6,1.4,1.5,1.4,2.8c0,0.9-0.2,1.6-0.6,2.1c-0.4,0.6-0.9,0.9-1.6,1
		v0.1c0.9,0.2,1.6,0.6,2,1.2c0.4,0.6,0.6,1.3,0.6,2.2c0,1.3-0.5,2.4-1.4,3.1c-1,0.7-2.3,1.1-3.9,1.1h-5.4V80.6z M435.8,86.3h1.8
		c0.8,0,1.4-0.1,1.8-0.4c0.4-0.3,0.6-0.7,0.6-1.3c0-0.6-0.2-1-0.6-1.2c-0.4-0.2-1.1-0.4-1.9-0.4h-1.6V86.3z M435.8,88.8v3.8h2
		c0.8,0,1.5-0.2,1.9-0.5s0.6-0.8,0.6-1.5c0-1.2-0.9-1.8-2.6-1.8H435.8z"/>
	<path class="st1" d="M459.2,95.1h-3.9l-6.3-11h-0.1c0.1,1.9,0.2,3.3,0.2,4.1v6.8h-2.8V80.6h3.9l6.3,10.9h0.1
		c-0.1-1.9-0.1-3.2-0.1-4v-6.9h2.8V95.1z"/>
	<path class="st1" d="M462.9,80.6h4.5c2.1,0,3.6,0.3,4.5,0.9c0.9,0.6,1.4,1.5,1.4,2.8c0,0.9-0.2,1.6-0.6,2.1c-0.4,0.6-0.9,0.9-1.6,1
		v0.1c0.9,0.2,1.6,0.6,2,1.2c0.4,0.6,0.6,1.3,0.6,2.2c0,1.3-0.5,2.4-1.4,3.1c-1,0.7-2.3,1.1-3.9,1.1h-5.4V80.6z M466,86.3h1.8
		c0.8,0,1.4-0.1,1.8-0.4c0.4-0.3,0.6-0.7,0.6-1.3c0-0.6-0.2-1-0.6-1.2c-0.4-0.2-1.1-0.4-1.9-0.4H466V86.3z M466,88.8v3.8h2
		c0.8,0,1.5-0.2,1.9-0.5s0.6-0.8,0.6-1.5c0-1.2-0.9-1.8-2.6-1.8H466z"/>
	<path class="st1" d="M481.8,95.1V80.6h3.1v14.5H481.8z"/>
	<path class="st1" d="M501.4,95.1h-3.9l-6.3-11h-0.1c0.1,1.9,0.2,3.3,0.2,4.1v6.8h-2.8V80.6h3.9l6.3,10.9h0.1
		c-0.1-1.9-0.1-3.2-0.1-4v-6.9h2.8V95.1z"/>
	<path class="st1" d="M513.4,80.6h3.1l-4.9,14.5h-3.4l-4.9-14.5h3.1l2.7,8.6c0.2,0.5,0.3,1.1,0.5,1.8c0.2,0.7,0.3,1.2,0.3,1.4
		c0.1-0.6,0.3-1.7,0.7-3.2L513.4,80.6z"/>
	<path class="st1" d="M526.7,95.1h-8.4V80.6h8.4v2.5h-5.3v3.2h4.9v2.5h-4.9v3.7h5.3V95.1z"/>
	<path class="st1" d="M538.3,91.1c0,1.3-0.5,2.3-1.4,3.1c-0.9,0.8-2.3,1.1-3.9,1.1c-1.5,0-2.9-0.3-4.1-0.9v-2.9
		c1,0.4,1.8,0.7,2.5,0.9s1.3,0.3,1.9,0.3c0.7,0,1.2-0.1,1.6-0.4c0.4-0.3,0.5-0.6,0.5-1.2c0-0.3-0.1-0.5-0.2-0.8
		c-0.2-0.2-0.4-0.4-0.7-0.6s-0.9-0.5-1.9-1c-0.9-0.4-1.6-0.8-2-1.2c-0.4-0.4-0.8-0.8-1.1-1.3s-0.4-1.1-0.4-1.8c0-1.3,0.4-2.3,1.3-3
		c0.9-0.7,2.1-1.1,3.6-1.1c0.8,0,1.5,0.1,2.2,0.3s1.4,0.4,2.1,0.8l-1,2.4c-0.8-0.3-1.4-0.5-1.9-0.7c-0.5-0.1-1-0.2-1.5-0.2
		c-0.6,0-1,0.1-1.3,0.4S532,84,532,84.4c0,0.3,0.1,0.5,0.2,0.7c0.1,0.2,0.3,0.4,0.6,0.6c0.3,0.2,0.9,0.5,2,1c1.4,0.6,2.3,1.3,2.8,2
		C538,89.3,538.3,90.1,538.3,91.1z"/>
	<path class="st1" d="M546.5,95.1h-3.1v-12h-3.9v-2.6h11v2.6h-3.9V95.1z"/>
	<path class="st1" d="M558.8,95.1l-3.5-11.4h-0.1c0.1,2.3,0.2,3.9,0.2,4.6v6.8h-2.8V80.6h4.2l3.4,11.1h0.1l3.6-11.1h4.2v14.5h-2.9
		v-6.9c0-0.3,0-0.7,0-1.1c0-0.4,0.1-1.5,0.1-3.4h-0.1l-3.7,11.4H558.8z"/>
	<path class="st1" d="M580.2,95.1h-8.4V80.6h8.4v2.5h-5.3v3.2h4.9v2.5h-4.9v3.7h5.3V95.1z"/>
	<path class="st1" d="M596.1,95.1h-3.9l-6.3-11h-0.1c0.1,1.9,0.2,3.3,0.2,4.1v6.8h-2.8V80.6h3.9l6.3,10.9h0.1
		c-0.1-1.9-0.1-3.2-0.1-4v-6.9h2.8V95.1z"/>
	<path class="st1" d="M605.4,95.1h-3.1v-12h-3.9v-2.6h11v2.6h-3.9V95.1z"/>
</g>
</svg>
